<svg xmlns="http://www.w3.org/2000/svg" viewBox="0 0 32 32" width="32" height="32">
  <defs>
    <linearGradient id="g" x1="0%" y1="0%" x2="100%" y2="100%">
      <stop offset="0%" style="stop-color:#f97316"/>
      <stop offset="100%" style="stop-color:#dc2626"/>
    </linearGradient>
    <filter id="glow" x="-30%" y="-30%" width="160%" height="160%">
      <feGaussianBlur stdDeviation="1.5" result="blur"/>
      <feMerge><feMergeNode in="blur"/><feMergeNode in="SourceGraphic"/></feMerge>
    </filter>
  </defs>
  <rect width="32" height="32" rx="8" fill="rgba(249,115,22,0.15)"/>
  <g transform="translate(16, 16.5)" filter="url(#glow)">
    <line x1="0" y1="3" x2="0" y2="-9" stroke="url(#g)" stroke-width="1.5" stroke-linecap="round"/>
    <line x1="0" y1="-1" x2="-5.5" y2="-5.5" stroke="url(#g)" stroke-width="1.5" stroke-linecap="round"/>
    <line x1="0" y1="-1" x2="5.5" y2="-5.5" stroke="url(#g)" stroke-width="1.5" stroke-linecap="round"/>
    <line x1="0" y1="1" x2="-4.5" y2="-2" stroke="url(#g)" stroke-width="1.5" stroke-linecap="round"/>
    <line x1="0" y1="1" x2="4.5" y2="-2" stroke="url(#g)" stroke-width="1.5" stroke-linecap="round"/>
    <path d="M0,-9 C-3,-11.5 -6,-10.5 -6.5,-8 C-7,-5.5 -5,-3 -2,-3.5 C-1,-3.8 0,-5 0,-9Z" fill="url(#g)" opacity="0.95"/>
    <path d="M-5.5,-5.5 C-8,-8 -10,-7 -10.5,-5 C-11,-3 -9,-1 -6,-1.5 C-4.5,-1.8 -3.5,-3 -5.5,-5.5Z" fill="url(#g)" opacity="0.85"/>
    <path d="M5.5,-5.5 C8,-8 10,-7 10.5,-5 C11,-3 9,-1 6,-1.5 C4.5,-1.8 3.5,-3 5.5,-5.5Z" fill="url(#g)" opacity="0.85"/>
    <path d="M-4.5,-2 C-7,-4.5 -8,-3 -8,-1 C-8,1 -6,2 -4,1 C-3,0.5 -2.5,-0.5 -4.5,-2Z" fill="url(#g)" opacity="0.75"/>
    <path d="M4.5,-2 C7,-4.5 8,-3 8,-1 C8,1 6,2 4,1 C3,0.5 2.5,-0.5 4.5,-2Z" fill="url(#g)" opacity="0.75"/>
    <path d="M-3,1.5 C-5.5,-1 -7,0.5 -7,3 C-7,5.5 -5,6.5 -3,5 C-2,4.5 -1,3.5 -3,1.5Z" fill="url(#g)" opacity="0.65"/>
    <path d="M3,1.5 C5.5,-1 7,0.5 7,3 C7,5.5 5,6.5 3,5 C2,4.5 1,3.5 3,1.5Z" fill="url(#g)" opacity="0.65"/>
  </g>
</svg>
