<svg xmlns="http://www.w3.org/2000/svg" viewBox="0 0 16 16" width="16" height="16">
  <defs>
    <linearGradient id="g" x1="0%" y1="0%" x2="100%" y2="100%">
      <stop offset="0%" style="stop-color:#f97316"/>
      <stop offset="100%" style="stop-color:#dc2626"/>
    </linearGradient>
  </defs>
  <rect width="16" height="16" rx="3" fill="rgba(249,115,22,0.15)"/>
  <g transform="translate(8, 8.5)">
    <line x1="0" y1="1.5" x2="0" y2="-4.5" stroke="url(#g)" stroke-width="1" stroke-linecap="round"/>
    <line x1="0" y1="-0.5" x2="-3" y2="-3" stroke="url(#g)" stroke-width="1" stroke-linecap="round"/>
    <line x1="0" y1="-0.5" x2="3" y2="-3" stroke="url(#g)" stroke-width="1" stroke-linecap="round"/>
    <path d="M0,-4.5 C-2,-6 -3,-5 -3,-3.5 C-3,-2 -2,-1 -0.5,-1.5 C0,-1.8 0,-2.5 0,-4.5Z" fill="url(#g)" opacity="0.95"/>
    <path d="M-3,-3 C-4.5,-4 -5,-3 -5,-2 C-5,-1 -4,-0.5 -2.5,-1 C-2,-1.2 -1.5,-1.8 -3,-3Z" fill="url(#g)" opacity="0.85"/>
    <path d="M3,-3 C4.5,-4 5,-3 5,-2 C5,-1 4,-0.5 2.5,-1 C2,-1.2 1.5,-1.8 3,-3Z" fill="url(#g)" opacity="0.85"/>
  </g>
</svg>
